<?xml version="1.0" encoding="iso-8859-1"?>
<!-- Generator: Adobe Illustrator 19.0.0, SVG Export Plug-In . SVG Version: 6.00 Build 0)  -->
<svg version="1.1" id="Layer_1" xmlns="http://www.w3.org/2000/svg" xmlns:xlink="http://www.w3.org/1999/xlink" x="0px" y="0px"
	 viewBox="0 0 512 512" style="enable-background:new 0 0 512 512;" xml:space="preserve">
<path style="fill:#A5A5A5;" d="M512,77.913v33.391H0V77.913c0-24.588,19.933-44.522,44.522-44.522h422.957
	C492.066,33.391,512,53.325,512,77.913z"/>
<path style="fill:#777777;" d="M397.913,66.226v1.113c0,4.61-3.738,8.348-8.348,8.348c-4.61,0-8.348-3.738-8.348-8.348v-1.113
	c0-4.61,3.738-8.348,8.348-8.348C394.175,57.878,397.913,61.616,397.913,66.226z M422.957,57.878c-4.61,0-8.348,3.738-8.348,8.348
	v1.113c0,4.61,3.738,8.348,8.348,8.348c4.61,0,8.348-3.738,8.348-8.348v-1.113C431.304,61.616,427.567,57.878,422.957,57.878z
	 M456.348,57.878c-4.61,0-8.348,3.738-8.348,8.348v1.113c0,4.61,3.738,8.348,8.348,8.348s8.348-3.738,8.348-8.348v-1.113
	C464.696,61.616,460.958,57.878,456.348,57.878z"/>
<path style="fill:#E9F2F4;" d="M200.348,100.174V22.261C200.348,9.966,190.382,0,178.087,0H89.043
	C76.749,0,66.783,9.966,66.783,22.261v77.913H0v311.652c0,24.588,19.933,44.522,44.522,44.522h203.201
	C249.18,487.281,274.798,512,306.087,512s56.907-24.718,58.365-55.652h103.027c24.588,0,44.522-19.934,44.522-44.522V100.174
	H200.348z M306.087,495.304c-22.079,0-40.198-17.235-41.636-38.957h83.272C346.284,478.069,328.166,495.304,306.087,495.304z"/>
<path style="fill:#C3E4ED;" d="M200.348,22.261v77.913H66.783V22.261C66.783,9.966,76.749,0,89.043,0h89.043
	C190.382,0,200.348,9.966,200.348,22.261z"/>
<path style="fill:#B2D1D8;" d="M178.087,38.957v22.261c0,6.147-4.983,11.13-11.13,11.13h-66.783c-6.147,0-11.13-4.983-11.13-11.13
	V38.957c0-6.147,4.983-11.13,11.13-11.13h66.783C173.104,27.826,178.087,32.809,178.087,38.957z"/>
<path style="fill:#CFDFE2;" d="M434.087,406.261H77.913c-12.295,0-22.261-9.966-22.261-22.261V261.565
	c0-12.295,9.966-22.261,22.261-22.261h356.174c12.295,0,22.261,9.966,22.261,22.261V384
	C456.348,396.295,446.382,406.261,434.087,406.261z M200.348,172.522L200.348,172.522c0-12.295-9.966-22.261-22.261-22.261H77.913
	c-12.295,0-22.261,9.966-22.261,22.261l0,0c0,12.295,9.966,22.261,22.261,22.261h100.174
	C190.382,194.783,200.348,184.816,200.348,172.522z M456.348,172.522L456.348,172.522c0-12.295-9.966-22.261-22.261-22.261H256
	c-12.295,0-22.261,9.966-22.261,22.261l0,0c0,12.295,9.966,22.261,22.261,22.261h178.087
	C446.382,194.783,456.348,184.816,456.348,172.522z"/>
<path style="fill:#FC8059;" d="M396.545,198.718c-0.824,1.044-1.941,1.63-3.105,1.63h-28.918V448v5.565
	c0,32.221-26.213,58.435-58.435,58.435c-31.288,0-56.907-24.718-58.365-55.652h16.728c1.438,21.721,19.557,38.957,41.636,38.957
	c23.016,0,41.739-18.724,41.739-41.739V448V200.348h-28.918c-1.164,0-2.282-0.587-3.105-1.63c-1.715-2.174-1.715-5.697,0-7.87
	l34.16-43.287c3.43-4.346,8.991-4.346,12.422,0l34.16,43.287C398.26,193.021,398.26,196.545,396.545,198.718z"/>
<path style="fill:#E8BA52;" d="M456.348,367.304c0,55.325-44.849,100.174-100.174,100.174S256,422.629,256,367.304
	S300.849,267.13,356.174,267.13S456.348,311.979,456.348,367.304z"/>
<path style="fill:#FED766;" d="M434.087,367.304c0,43.03-34.883,77.913-77.913,77.913s-77.913-34.883-77.913-77.913
	s34.883-77.913,77.913-77.913S434.087,324.274,434.087,367.304z"/>
<path style="fill:#AD8653;" d="M330.371,363.004c11.856,0,21.502-9.646,21.502-21.502c0-11.856-9.646-21.502-21.502-21.502
	c-11.856,0-21.502,9.646-21.502,21.502C308.87,353.358,318.515,363.004,330.371,363.004z M330.371,333.516
	c4.403,0,7.986,3.583,7.986,7.986c0,4.403-3.583,7.986-7.986,7.986c-4.404,0-7.987-3.583-7.987-7.986
	C322.385,337.099,325.968,333.516,330.371,333.516z M381.976,371.605c-11.856,0-21.502,9.646-21.502,21.502
	c0,11.856,9.646,21.502,21.502,21.502c11.856,0,21.502-9.646,21.502-21.502C403.478,381.251,393.833,371.605,381.976,371.605z
	 M381.976,401.093c-4.403,0-7.986-3.583-7.986-7.986s3.583-7.986,7.986-7.986c4.404,0,7.987,3.583,7.987,7.986
	C389.963,397.51,386.38,401.093,381.976,401.093z M396.994,336.041l-72.083,72.083c-1.32,1.319-3.049,1.979-4.778,1.979
	c-1.73,0-3.459-0.66-4.778-1.979c-2.639-2.639-2.639-6.918,0-9.557l72.083-72.083c2.639-2.639,6.918-2.639,9.557,0
	C399.633,329.124,399.633,333.402,396.994,336.041z"/>
<g>
</g>
<g>
</g>
<g>
</g>
<g>
</g>
<g>
</g>
<g>
</g>
<g>
</g>
<g>
</g>
<g>
</g>
<g>
</g>
<g>
</g>
<g>
</g>
<g>
</g>
<g>
</g>
<g>
</g>
</svg>
